<svg width="54" height="22" viewBox="0 0 54 22" fill="none" xmlns="http://www.w3.org/2000/svg">
<path d="M-6.83218e-05 21L7.43993 -1.43051e-06H11.2799L18.6899 21H15.5099L9.38993 3.03H9.32993L3.14993 21H-6.83218e-05ZM3.47993 15.36L4.31993 12.96H14.1899L15.0299 15.36H3.47993ZM18.5739 21V6.12H21.2439L21.5139 9.12H21.5439C21.9439 8.3 22.3939 7.65 22.8939 7.17C23.4139 6.67 24.0139 6.31 24.6939 6.09C25.3939 5.87 26.1839 5.76 27.0639 5.76V8.91H26.2539C25.5739 8.91 24.9439 9 24.3639 9.18C23.7839 9.34 23.2839 9.61 22.8639 9.99C22.4639 10.35 22.1439 10.84 21.9039 11.46C21.6839 12.06 21.5739 12.81 21.5739 13.71V21H18.5739ZM33.3871 21.36C31.9471 21.36 30.6671 21.04 29.5471 20.4C28.4271 19.74 27.5471 18.83 26.9071 17.67C26.2671 16.51 25.9471 15.15 25.9471 13.59C25.9471 12.03 26.2571 10.67 26.8771 9.51C27.5171 8.33 28.3971 7.41 29.5171 6.75C30.6371 6.09 31.9471 5.76 33.4471 5.76C34.9071 5.76 36.1671 6.09 37.2271 6.75C38.3071 7.39 39.1371 8.24 39.7171 9.3C40.2971 10.36 40.5871 11.54 40.5871 12.84C40.5871 13.04 40.5871 13.26 40.5871 13.5C40.5871 13.74 40.5771 13.99 40.5571 14.25H28.1371V12.15H37.5871C37.5271 10.91 37.1071 9.94 36.3271 9.24C35.5471 8.54 34.5771 8.19 33.4171 8.19C32.5971 8.19 31.8371 8.37 31.1371 8.73C30.4571 9.09 29.9071 9.62 29.4871 10.32C29.0871 11.02 28.8871 11.91 28.8871 12.99V13.83C28.8871 14.93 29.0871 15.86 29.4871 16.62C29.9071 17.36 30.4571 17.92 31.1371 18.3C31.8371 18.68 32.5871 18.87 33.3871 18.87C34.3271 18.87 35.1171 18.66 35.7571 18.24C36.3971 17.8 36.8671 17.21 37.1671 16.47H40.1671C39.9071 17.41 39.4671 18.25 38.8471 18.99C38.2271 19.71 37.4571 20.29 36.5371 20.73C35.6371 21.15 34.5871 21.36 33.3871 21.36ZM45.9128 21.36C44.6928 21.36 43.6728 21.16 42.8528 20.76C42.0528 20.34 41.4528 19.78 41.0528 19.08C40.6728 18.38 40.4828 17.62 40.4828 16.8C40.4828 15.82 40.7328 14.98 41.2328 14.28C41.7528 13.58 42.4928 13.04 43.4528 12.66C44.4128 12.28 45.5728 12.09 46.9328 12.09H50.8928C50.8928 11.21 50.7528 10.49 50.4728 9.93C50.1928 9.35 49.7928 8.92 49.2728 8.64C48.7728 8.34 48.1428 8.19 47.3828 8.19C46.4828 8.19 45.6928 8.42 45.0128 8.88C44.3528 9.32 43.9428 9.99 43.7828 10.89H40.7828C40.9028 9.79 41.2628 8.87 41.8628 8.13C42.4828 7.37 43.2728 6.79 44.2328 6.39C45.2128 5.97 46.2728 5.76 47.4128 5.76C48.8128 5.76 49.9928 6.01 50.9528 6.51C51.9128 7.01 52.6428 7.72 53.1428 8.64C53.6428 9.54 53.8928 10.61 53.8928 11.85V21H51.3128L51.0428 18.48H51.0128C50.7728 18.9 50.4828 19.29 50.1428 19.65C49.8228 20.01 49.4528 20.32 49.0328 20.58C48.6128 20.82 48.1428 21.01 47.6228 21.15C47.1028 21.29 46.5328 21.36 45.9128 21.36ZM46.5428 18.93C47.2228 18.93 47.8228 18.8 48.3428 18.54C48.8628 18.28 49.3028 17.93 49.6628 17.49C50.0428 17.03 50.3228 16.52 50.5028 15.96C50.7028 15.4 50.8128 14.82 50.8328 14.22H47.2328C46.3728 14.22 45.6728 14.32 45.1328 14.52C44.5928 14.72 44.2028 15 43.9628 15.36C43.7428 15.72 43.6328 16.14 43.6328 16.62C43.6328 17.08 43.7428 17.49 43.9628 17.85C44.2028 18.19 44.5328 18.46 44.9528 18.66C45.3928 18.84 45.9228 18.93 46.5428 18.93Z" fill="black"/>
</svg>
